<svg width="36" height="36" viewBox="0 0 36 36" fill="none" xmlns="http://www.w3.org/2000/svg">
<circle cx="18" cy="18" r="18" fill="black"/>
<path d="M12.291 28C11.2493 28 10.3848 27.6284 9.69727 26.8853C9.00977 26.1424 8.70081 25.257 8.77039 24.2291H5.64539L6.10352 22.1459H9.61414C9.94039 21.7639 10.3327 21.4634 10.791 21.2447C11.2493 21.0259 11.7493 20.9166 12.291 20.9166C12.8327 20.9166 13.3327 21.0259 13.791 21.2447C14.2493 21.4634 14.6417 21.7639 14.9682 22.1459H20.8329L23.6245 10.0834H9.52039L9.62445 9.63531C9.73549 9.14927 9.97685 8.75521 10.3485 8.45313C10.72 8.15104 11.1523 8 11.6454 8H26.2285L25.0307 13.2084H28.8535L32.4785 18.0416L31.2495 24.2291H28.7495C28.8188 25.257 28.5063 26.1424 27.812 26.8853C27.1176 27.6284 26.2496 28 25.2079 28C24.1662 28 23.3016 27.6284 22.6141 26.8853C21.9266 26.1424 21.6176 25.257 21.687 24.2291H15.8329C15.9023 25.257 15.5898 26.1424 14.8954 26.8853C14.2008 27.6284 13.3327 28 12.291 28ZM23.5932 19.4584H30.0829L30.2495 18.5522L27.812 15.2916H24.5516L23.5932 19.4584ZM23.416 10.9272L23.6245 10.0834L20.8329 22.1459L21.0204 21.3228L22.0829 16.7603L23.416 10.9272ZM4.41602 19.4478L4.93695 17.3647H11.812L11.291 19.4478H4.41602ZM6.91602 14.8853L7.43695 12.8022H15.562L15.041 14.8853H6.91602ZM12.291 25.9166C12.7008 25.9166 13.0463 25.7725 13.3276 25.4844C13.6088 25.1963 13.7495 24.8543 13.7495 24.4584C13.7495 24.0486 13.6088 23.7031 13.3276 23.4219C13.0463 23.1406 12.7008 23 12.291 23C11.8952 23 11.5532 23.1406 11.2651 23.4219C10.977 23.7031 10.8329 24.0486 10.8329 24.4584C10.8329 24.8543 10.977 25.1963 11.2651 25.4844C11.5532 25.7725 11.8952 25.9166 12.291 25.9166ZM25.2079 25.9166C25.6175 25.9166 25.9629 25.7725 26.2441 25.4844C26.5254 25.1963 26.666 24.8543 26.666 24.4584C26.666 24.0486 26.5254 23.7031 26.2441 23.4219C25.9629 23.1406 25.6175 23 25.2079 23C24.8121 23 24.47 23.1406 24.1816 23.4219C23.8935 23.7031 23.7495 24.0486 23.7495 24.4584C23.7495 24.8543 23.8935 25.1963 24.1816 25.4844C24.47 25.7725 24.8121 25.9166 25.2079 25.9166Z" fill="white"/>
</svg>
